<mxfile host="app.diagrams.net" agent="Mozilla/5.0 (Windows NT 10.0; Win64; x64) AppleWebKit/537.36 (KHTML, like Gecko) Chrome/139.0.0.0 Safari/537.36" version="28.0.9">
  <diagram name="Page-1" id="T4tvRStizZ_iwaSTZP0o">
    <mxGraphModel dx="2066" dy="1145" grid="0" gridSize="10" guides="1" tooltips="1" connect="1" arrows="1" fold="1" page="1" pageScale="1" pageWidth="850" pageHeight="1100" math="0" shadow="0">
      <root>
        <mxCell id="0" />
        <mxCell id="1" parent="0" />
        <mxCell id="77BDCkDlbAGJzvOvq-cN-1" value="" style="rounded=0;whiteSpace=wrap;html=1;rotation=90;" parent="1" vertex="1">
          <mxGeometry x="847.5" y="440" width="395" height="20" as="geometry" />
        </mxCell>
        <mxCell id="77BDCkDlbAGJzvOvq-cN-2" value="" style="rounded=0;whiteSpace=wrap;html=1;rotation=90;movable=0;resizable=0;rotatable=0;deletable=0;editable=0;locked=1;connectable=0;" parent="1" vertex="1">
          <mxGeometry x="150" y="388.39000000000004" width="577.31" height="310" as="geometry" />
        </mxCell>
        <mxCell id="77BDCkDlbAGJzvOvq-cN-3" value="&lt;font style=&quot;font-size: 14px;&quot;&gt;Add Sticky Note&lt;/font&gt;" style="ellipse;whiteSpace=wrap;html=1;" parent="1" vertex="1">
          <mxGeometry x="376.15999999999997" y="290" width="125" height="80" as="geometry" />
        </mxCell>
        <mxCell id="77BDCkDlbAGJzvOvq-cN-4" value="&lt;font style=&quot;font-size: 14px;&quot;&gt;View Notes&lt;/font&gt;" style="ellipse;whiteSpace=wrap;html=1;" parent="1" vertex="1">
          <mxGeometry x="377.40999999999997" y="540" width="125" height="80" as="geometry" />
        </mxCell>
        <mxCell id="77BDCkDlbAGJzvOvq-cN-5" value="&lt;font style=&quot;font-size: 16px;&quot;&gt;Use Case Diagram&lt;/font&gt;" style="text;strokeColor=none;fillColor=none;align=left;verticalAlign=middle;spacingLeft=4;spacingRight=4;overflow=hidden;points=[[0,0.5],[1,0.5]];portConstraint=eastwest;rotatable=0;whiteSpace=wrap;html=1;" parent="1" vertex="1">
          <mxGeometry x="362.5" y="160" width="155" height="60" as="geometry" />
        </mxCell>
        <mxCell id="77BDCkDlbAGJzvOvq-cN-6" value="&lt;font style=&quot;font-size: 14px;&quot;&gt;Update Note&lt;/font&gt;" style="ellipse;whiteSpace=wrap;html=1;" parent="1" vertex="1">
          <mxGeometry x="377.40999999999997" y="388.39" width="125" height="80" as="geometry" />
        </mxCell>
        <mxCell id="77BDCkDlbAGJzvOvq-cN-7" value="" style="endArrow=block;dashed=1;endFill=0;endSize=12;html=1;rounded=0;exitX=0.5;exitY=1;exitDx=0;exitDy=0;entryX=0.5;entryY=0;entryDx=0;entryDy=0;" parent="1" source="77BDCkDlbAGJzvOvq-cN-6" target="77BDCkDlbAGJzvOvq-cN-4" edge="1">
          <mxGeometry width="160" relative="1" as="geometry">
            <mxPoint x="448.65999999999997" y="406" as="sourcePoint" />
            <mxPoint x="438.65999999999997" y="456" as="targetPoint" />
          </mxGeometry>
        </mxCell>
        <mxCell id="77BDCkDlbAGJzvOvq-cN-8" value="&amp;lt;&amp;lt;include&amp;gt;&amp;gt;" style="text;html=1;align=center;verticalAlign=middle;whiteSpace=wrap;rounded=0;" parent="1" vertex="1">
          <mxGeometry x="357.46" y="485.88" width="60" height="30" as="geometry" />
        </mxCell>
        <mxCell id="77BDCkDlbAGJzvOvq-cN-9" value="User" style="shape=umlActor;verticalLabelPosition=bottom;verticalAlign=top;html=1;outlineConnect=0;" parent="1" vertex="1">
          <mxGeometry x="92" y="448" width="100" height="200" as="geometry" />
        </mxCell>
        <mxCell id="77BDCkDlbAGJzvOvq-cN-10" value="" style="endArrow=none;html=1;rounded=0;exitX=0;exitY=0.5;exitDx=0;exitDy=0;" parent="1" source="77BDCkDlbAGJzvOvq-cN-3" target="77BDCkDlbAGJzvOvq-cN-9" edge="1">
          <mxGeometry width="50" height="50" relative="1" as="geometry">
            <mxPoint x="363" y="290" as="sourcePoint" />
            <mxPoint x="190" y="450" as="targetPoint" />
          </mxGeometry>
        </mxCell>
        <mxCell id="77BDCkDlbAGJzvOvq-cN-11" value="&lt;span style=&quot;font-size: 14px;&quot;&gt;Add Sticky Note Form&lt;/span&gt;" style="swimlane;whiteSpace=wrap;html=1;startSize=90;movable=1;resizable=1;rotatable=1;deletable=1;editable=1;locked=0;connectable=1;" parent="1" vertex="1">
          <mxGeometry x="950" y="117.5" width="190" height="600" as="geometry">
            <mxRectangle x="1370" y="370" width="130" height="90" as="alternateBounds" />
          </mxGeometry>
        </mxCell>
        <mxCell id="77BDCkDlbAGJzvOvq-cN-12" value="&lt;font style=&quot;font-size: 14px;&quot;&gt;Sticky Notes Database&lt;/font&gt;" style="swimlane;whiteSpace=wrap;html=1;startSize=90;movable=1;resizable=1;rotatable=1;deletable=1;editable=1;locked=0;connectable=1;" parent="1" vertex="1">
          <mxGeometry x="1460" y="117.5" width="200" height="600" as="geometry" />
        </mxCell>
        <mxCell id="77BDCkDlbAGJzvOvq-cN-13" value="" style="rounded=0;whiteSpace=wrap;html=1;rotation=90;" parent="77BDCkDlbAGJzvOvq-cN-12" vertex="1">
          <mxGeometry x="11.25" y="330" width="177.5" height="20" as="geometry" />
        </mxCell>
        <mxCell id="77BDCkDlbAGJzvOvq-cN-14" value="" style="endArrow=none;dashed=1;html=1;rounded=0;exitX=0;exitY=0.5;exitDx=0;exitDy=0;" parent="77BDCkDlbAGJzvOvq-cN-12" source="77BDCkDlbAGJzvOvq-cN-13" edge="1">
          <mxGeometry width="50" height="50" relative="1" as="geometry">
            <mxPoint x="80" y="200" as="sourcePoint" />
            <mxPoint x="100" y="90" as="targetPoint" />
          </mxGeometry>
        </mxCell>
        <mxCell id="77BDCkDlbAGJzvOvq-cN-15" value="" style="endArrow=none;dashed=1;html=1;rounded=0;exitX=0.5;exitY=1;exitDx=0;exitDy=0;" parent="77BDCkDlbAGJzvOvq-cN-12" source="77BDCkDlbAGJzvOvq-cN-12" edge="1">
          <mxGeometry width="50" height="50" relative="1" as="geometry">
            <mxPoint x="99.44" y="520" as="sourcePoint" />
            <mxPoint x="99.44" y="430" as="targetPoint" />
          </mxGeometry>
        </mxCell>
        <mxCell id="77BDCkDlbAGJzvOvq-cN-16" value="&lt;font style=&quot;font-size: 13px;&quot;&gt;Add Sticky note to db&lt;/font&gt;" style="endArrow=open;endSize=12;dashed=1;html=1;rounded=0;movable=1;resizable=1;rotatable=1;deletable=1;editable=1;locked=0;connectable=1;" parent="77BDCkDlbAGJzvOvq-cN-12" edge="1">
          <mxGeometry width="160" relative="1" as="geometry">
            <mxPoint y="280" as="sourcePoint" />
            <mxPoint x="180" y="281" as="targetPoint" />
          </mxGeometry>
        </mxCell>
        <mxCell id="77BDCkDlbAGJzvOvq-cN-17" value="&lt;span style=&quot;font-size: 14px;&quot;&gt;Acknowledge update&lt;/span&gt;" style="endArrow=open;endSize=12;dashed=1;html=1;rounded=0;movable=1;resizable=1;rotatable=1;deletable=1;editable=1;locked=0;connectable=1;" parent="77BDCkDlbAGJzvOvq-cN-12" edge="1">
          <mxGeometry x="0.2353" width="160" relative="1" as="geometry">
            <mxPoint x="180" y="285" as="sourcePoint" />
            <mxPoint x="-50" y="395" as="targetPoint" />
            <Array as="points">
              <mxPoint x="180" y="395" />
            </Array>
            <mxPoint as="offset" />
          </mxGeometry>
        </mxCell>
        <mxCell id="77BDCkDlbAGJzvOvq-cN-18" value="" style="endArrow=none;html=1;rounded=0;exitX=0;exitY=0.5;exitDx=0;exitDy=0;" parent="1" source="77BDCkDlbAGJzvOvq-cN-6" target="77BDCkDlbAGJzvOvq-cN-9" edge="1">
          <mxGeometry width="50" height="50" relative="1" as="geometry">
            <mxPoint x="340" y="450" as="sourcePoint" />
            <mxPoint x="211.38" y="480" as="targetPoint" />
          </mxGeometry>
        </mxCell>
        <mxCell id="77BDCkDlbAGJzvOvq-cN-19" value="User" style="shape=umlActor;verticalLabelPosition=bottom;verticalAlign=top;html=1;outlineConnect=0;" parent="1" vertex="1">
          <mxGeometry x="847.5" y="253.38" width="70" height="150" as="geometry" />
        </mxCell>
        <mxCell id="77BDCkDlbAGJzvOvq-cN-20" value="" style="endArrow=classic;html=1;rounded=0;" parent="1" source="77BDCkDlbAGJzvOvq-cN-19" edge="1">
          <mxGeometry width="50" height="50" relative="1" as="geometry">
            <mxPoint x="833" y="323.5" as="sourcePoint" />
            <mxPoint x="950" y="457.5" as="targetPoint" />
            <Array as="points">
              <mxPoint x="820" y="327.5" />
              <mxPoint x="820" y="457.5" />
            </Array>
          </mxGeometry>
        </mxCell>
        <mxCell id="77BDCkDlbAGJzvOvq-cN-21" value="&lt;font style=&quot;font-size: 16px;&quot;&gt;Sequence Diagram for when the user adds a sticky note to the application&lt;/font&gt;" style="text;strokeColor=none;fillColor=none;align=left;verticalAlign=middle;spacingLeft=4;spacingRight=4;overflow=hidden;points=[[0,0.5],[1,0.5]];portConstraint=eastwest;rotatable=0;whiteSpace=wrap;html=1;" parent="1" vertex="1">
          <mxGeometry x="1050" y="10" width="570" height="55" as="geometry" />
        </mxCell>
        <mxCell id="77BDCkDlbAGJzvOvq-cN-22" value="" style="endArrow=none;dashed=1;html=1;rounded=0;" parent="1" edge="1">
          <mxGeometry width="50" height="50" relative="1" as="geometry">
            <mxPoint x="1044" y="252.5" as="sourcePoint" />
            <mxPoint x="1044" y="207.5" as="targetPoint" />
          </mxGeometry>
        </mxCell>
        <mxCell id="77BDCkDlbAGJzvOvq-cN-23" value="" style="endArrow=none;dashed=1;html=1;rounded=0;entryX=1;entryY=0.5;entryDx=0;entryDy=0;" parent="1" target="77BDCkDlbAGJzvOvq-cN-1" edge="1">
          <mxGeometry width="50" height="50" relative="1" as="geometry">
            <mxPoint x="1044.88" y="717.5" as="sourcePoint" />
            <mxPoint x="1044.44" y="657.5" as="targetPoint" />
          </mxGeometry>
        </mxCell>
        <mxCell id="77BDCkDlbAGJzvOvq-cN-24" value="&lt;span style=&quot;font-size: 14px;&quot;&gt;Sticky Notes View&lt;/span&gt;" style="swimlane;whiteSpace=wrap;html=1;startSize=90;movable=1;resizable=1;rotatable=1;deletable=1;editable=1;locked=0;connectable=1;" parent="1" vertex="1">
          <mxGeometry x="1200" y="117.5" width="200" height="600" as="geometry">
            <mxRectangle x="1370" y="370" width="130" height="90" as="alternateBounds" />
          </mxGeometry>
        </mxCell>
        <mxCell id="77BDCkDlbAGJzvOvq-cN-25" value="" style="rounded=0;whiteSpace=wrap;html=1;rotation=90;" parent="77BDCkDlbAGJzvOvq-cN-24" vertex="1">
          <mxGeometry x="-64.37" y="324.38" width="351.25" height="20" as="geometry" />
        </mxCell>
        <mxCell id="77BDCkDlbAGJzvOvq-cN-26" value="&lt;span style=&quot;font-size: 14px;&quot;&gt;Validate Input&lt;/span&gt;" style="endArrow=open;endSize=12;dashed=1;html=1;rounded=0;movable=1;resizable=1;rotatable=1;deletable=1;editable=1;locked=0;connectable=1;" parent="77BDCkDlbAGJzvOvq-cN-24" edge="1">
          <mxGeometry x="-0.2308" y="-1" width="160" relative="1" as="geometry">
            <mxPoint y="240" as="sourcePoint" />
            <mxPoint x="260" y="241" as="targetPoint" />
            <mxPoint as="offset" />
          </mxGeometry>
        </mxCell>
        <mxCell id="77BDCkDlbAGJzvOvq-cN-27" value="&lt;span style=&quot;font-size: 14px;&quot;&gt;Inform user accordingly&lt;/span&gt;" style="endArrow=open;endSize=12;dashed=1;html=1;rounded=0;movable=1;resizable=1;rotatable=1;deletable=1;editable=1;locked=0;connectable=1;" parent="77BDCkDlbAGJzvOvq-cN-24" edge="1">
          <mxGeometry x="-0.1538" width="160" relative="1" as="geometry">
            <mxPoint x="200" y="460" as="sourcePoint" />
            <mxPoint x="-60" y="461" as="targetPoint" />
            <Array as="points">
              <mxPoint x="120" y="461" />
            </Array>
            <mxPoint as="offset" />
          </mxGeometry>
        </mxCell>
        <mxCell id="77BDCkDlbAGJzvOvq-cN-28" value="" style="endArrow=none;dashed=1;html=1;rounded=0;exitX=0;exitY=0.5;exitDx=0;exitDy=0;" parent="77BDCkDlbAGJzvOvq-cN-24" source="77BDCkDlbAGJzvOvq-cN-25" edge="1">
          <mxGeometry width="50" height="50" relative="1" as="geometry">
            <mxPoint x="111" y="150" as="sourcePoint" />
            <mxPoint x="110.75999999999999" y="90" as="targetPoint" />
          </mxGeometry>
        </mxCell>
        <mxCell id="77BDCkDlbAGJzvOvq-cN-29" value="" style="endArrow=none;dashed=1;html=1;rounded=0;" parent="77BDCkDlbAGJzvOvq-cN-24" edge="1">
          <mxGeometry width="50" height="50" relative="1" as="geometry">
            <mxPoint x="111" y="600" as="sourcePoint" />
            <mxPoint x="110.75999999999999" y="510" as="targetPoint" />
          </mxGeometry>
        </mxCell>
        <mxCell id="77BDCkDlbAGJzvOvq-cN-30" value="&lt;span style=&quot;font-size: 14px;&quot;&gt;User adds note info&lt;/span&gt;" style="endArrow=open;endSize=12;dashed=1;html=1;rounded=0;movable=1;resizable=1;rotatable=1;deletable=1;editable=1;locked=0;connectable=1;" parent="1" edge="1">
          <mxGeometry width="160" relative="1" as="geometry">
            <mxPoint x="950" y="273.5" as="sourcePoint" />
            <mxPoint x="1200" y="273" as="targetPoint" />
          </mxGeometry>
        </mxCell>
        <mxCell id="77BDCkDlbAGJzvOvq-cN-31" value="&lt;font style=&quot;font-size: 16px;&quot;&gt;Class Diagram&lt;/font&gt;" style="text;strokeColor=none;fillColor=none;align=left;verticalAlign=middle;spacingLeft=4;spacingRight=4;overflow=hidden;points=[[0,0.5],[1,0.5]];portConstraint=eastwest;rotatable=0;whiteSpace=wrap;html=1;" parent="1" vertex="1">
          <mxGeometry x="977.5" y="760" width="130" height="55" as="geometry" />
        </mxCell>
        <mxCell id="77BDCkDlbAGJzvOvq-cN-32" value="&lt;span style=&quot;font-size: 16px;&quot;&gt;Task&lt;/span&gt;" style="swimlane;fontStyle=0;childLayout=stackLayout;horizontal=1;startSize=40;fillColor=none;horizontalStack=0;resizeParent=1;resizeParentMax=0;resizeLast=0;collapsible=1;marginBottom=0;whiteSpace=wrap;html=1;" parent="1" vertex="1">
          <mxGeometry x="950" y="823" width="180" height="240" as="geometry" />
        </mxCell>
        <mxCell id="77BDCkDlbAGJzvOvq-cN-33" value="&lt;font style=&quot;font-size: 14px;&quot;&gt;- id: int&lt;/font&gt;" style="text;strokeColor=none;fillColor=none;align=left;verticalAlign=top;spacingLeft=4;spacingRight=4;overflow=hidden;rotatable=0;points=[[0,0.5],[1,0.5]];portConstraint=eastwest;whiteSpace=wrap;html=1;" parent="77BDCkDlbAGJzvOvq-cN-32" vertex="1">
          <mxGeometry y="40" width="180" height="40" as="geometry" />
        </mxCell>
        <mxCell id="77BDCkDlbAGJzvOvq-cN-34" value="&lt;span style=&quot;font-size: 14px;&quot;&gt;- title: String&lt;/span&gt;" style="text;strokeColor=none;fillColor=none;align=left;verticalAlign=top;spacingLeft=4;spacingRight=4;overflow=hidden;rotatable=0;points=[[0,0.5],[1,0.5]];portConstraint=eastwest;whiteSpace=wrap;html=1;" parent="77BDCkDlbAGJzvOvq-cN-32" vertex="1">
          <mxGeometry y="80" width="180" height="40" as="geometry" />
        </mxCell>
        <mxCell id="OfeAxZvL0Cc0HARGO6v1-1" value="&lt;span style=&quot;font-size: 14px;&quot;&gt;- content: String&lt;/span&gt;" style="text;strokeColor=none;fillColor=none;align=left;verticalAlign=top;spacingLeft=4;spacingRight=4;overflow=hidden;rotatable=0;points=[[0,0.5],[1,0.5]];portConstraint=eastwest;whiteSpace=wrap;html=1;" vertex="1" parent="77BDCkDlbAGJzvOvq-cN-32">
          <mxGeometry y="120" width="180" height="40" as="geometry" />
        </mxCell>
        <mxCell id="77BDCkDlbAGJzvOvq-cN-35" value="&lt;span style=&quot;font-size: 14px;&quot;&gt;- dateCreated: Date&lt;/span&gt;" style="text;strokeColor=none;fillColor=none;align=left;verticalAlign=top;spacingLeft=4;spacingRight=4;overflow=hidden;rotatable=0;points=[[0,0.5],[1,0.5]];portConstraint=eastwest;whiteSpace=wrap;html=1;" parent="77BDCkDlbAGJzvOvq-cN-32" vertex="1">
          <mxGeometry y="160" width="180" height="40" as="geometry" />
        </mxCell>
        <mxCell id="77BDCkDlbAGJzvOvq-cN-36" value="&lt;span style=&quot;font-size: 14px;&quot;&gt;+ __str__()&lt;/span&gt;" style="text;strokeColor=none;fillColor=none;align=left;verticalAlign=top;spacingLeft=4;spacingRight=4;overflow=hidden;rotatable=0;points=[[0,0.5],[1,0.5]];portConstraint=eastwest;whiteSpace=wrap;html=1;" parent="77BDCkDlbAGJzvOvq-cN-32" vertex="1">
          <mxGeometry y="200" width="180" height="40" as="geometry" />
        </mxCell>
        <mxCell id="77BDCkDlbAGJzvOvq-cN-37" value="&lt;font style=&quot;font-size: 14px;&quot;&gt;Delete Notes&lt;/font&gt;" style="ellipse;whiteSpace=wrap;html=1;" parent="1" vertex="1">
          <mxGeometry x="376.15" y="670" width="125" height="80" as="geometry" />
        </mxCell>
        <mxCell id="77BDCkDlbAGJzvOvq-cN-38" value="" style="endArrow=none;html=1;rounded=0;exitX=0;exitY=0.5;exitDx=0;exitDy=0;" parent="1" source="77BDCkDlbAGJzvOvq-cN-37" target="77BDCkDlbAGJzvOvq-cN-9" edge="1">
          <mxGeometry width="50" height="50" relative="1" as="geometry">
            <mxPoint x="230" y="720" as="sourcePoint" />
            <mxPoint x="210" y="830" as="targetPoint" />
          </mxGeometry>
        </mxCell>
      </root>
    </mxGraphModel>
  </diagram>
</mxfile>
